<svg width="249" height="249" viewBox="0 0 249 249" fill="none"
    xmlns="http://www.w3.org/2000/svg">
    <path d="M245.48 107.454C250.864 37.9485 155.462 -21.9626 82.8739 7.84104C34.576 12.0522 -1.0016 73.3308 0.0837459 116.593C0.365936 128.119 2.81882 138.669 6.92143 148.285C6.87801 149.001 6.96484 149.783 7.26874 150.607C25.025 199.231 63.7284 227.862 115.282 231.379C115.521 231.379 115.782 231.379 116.02 231.401C180.859 243.925 264.8 171.641 245.48 107.411V107.454ZM82.4615 136.107C82.5266 135.912 82.57 135.717 82.6352 135.521C82.8522 136.563 83.091 137.583 83.3515 138.604C82.7871 138.3 82.2227 137.974 81.6583 137.67C81.984 137.193 82.2661 136.693 82.4398 136.107H82.4615ZM73.3012 41.9643C74.2129 41.0309 75.1029 40.0758 76.0363 39.1641C75.1897 40.4231 74.3648 41.7038 73.5834 43.0063C73.1492 43.245 72.7151 43.4838 72.281 43.7226C72.6283 43.1365 72.9539 42.5504 73.3012 41.9643ZM29.9091 57.7235C28.5415 59.1562 27.2391 60.6323 26.0018 62.1735C31.32 52.4053 37.984 43.3753 45.7551 36.0166C39.4384 42.5938 34.1636 49.9091 29.9091 57.7235ZM35.9219 140.47C37.4848 148.176 39.7206 155.687 42.7161 162.742C38.874 156.36 36.6816 148.719 35.9219 140.47ZM35.9653 125.927C36.4428 120.652 37.4196 115.29 38.8306 109.972C38.4399 114.748 38.2879 119.523 38.3965 124.255C37.4848 124.646 36.6599 125.21 35.9653 125.927ZM47.4482 176.591C47.0141 175.896 46.58 175.158 46.1675 174.42C46.6668 173.66 47.0358 172.835 47.1878 171.989C48.729 174.767 50.4004 177.459 52.2455 180.02C50.6175 178.913 49.0111 177.785 47.4482 176.591ZM50.4004 50.6254C50.2701 51.1029 50.1616 51.5805 50.0314 52.0363C45.4512 58.6135 41.4137 65.5163 37.9623 72.6579C38.9174 69.1197 39.9377 65.7551 41.023 62.6076C46.1892 53.2953 52.9835 44.873 61.319 37.7966C58.7793 40.6185 56.3481 43.5272 54.0689 46.5228C52.4191 47.0437 51.0082 48.3462 50.4004 50.6037V50.6254ZM57.2598 80.4724C57.021 80.8631 56.7822 81.2538 56.5217 81.6446C57.8459 76.8256 59.3436 72.1586 60.9717 67.7304C61.2973 67.3831 61.6012 67.0141 61.9268 66.6668C60.1468 71.2687 58.6056 75.8922 57.2598 80.4507V80.4724ZM66.5937 173.248C66.0945 172.683 65.5952 172.097 65.096 171.511C65.6821 171.88 66.2681 172.249 66.8759 172.597C66.7674 172.814 66.6806 173.031 66.572 173.248H66.5937ZM82.4832 165.802C77.6209 164.044 73.1275 161.526 69.242 158.313C72.1507 159.529 75.3633 160.072 78.6628 160.137C79.4008 160.94 80.1389 161.743 80.942 162.503C81.9839 163.501 83.0476 164.413 84.1329 165.26C83.5686 165.455 83.0259 165.629 82.4832 165.802ZM112.699 109.668C112.612 109.777 112.547 109.907 112.482 110.016C112.222 110.211 111.961 110.428 111.701 110.645C111.722 109.864 111.766 109.126 111.831 108.431C112.33 108.105 112.851 107.801 113.372 107.541C113.133 108.257 112.916 108.952 112.699 109.668ZM196.466 73.6347C197.638 76.5 198.615 79.539 199.332 82.6865C199.049 82.4911 198.767 82.2741 198.485 82.0787C197.747 79.9731 196.965 77.8676 196.162 75.7837C196.293 75.0674 196.423 74.351 196.488 73.6347H196.466ZM182.552 41.248C180.685 40.6185 178.797 40.1192 176.887 39.7936C176.691 39.2075 176.452 38.6215 176.235 38.0571C178.406 39.0122 180.512 40.0758 182.552 41.248ZM191.278 121.108C191.04 125.471 189.672 129.986 187.523 134.284C185.96 136.151 184.289 137.952 182.53 139.667C186.242 133.719 189.281 127.403 191.278 121.129V121.108ZM173.913 100.66C173.913 100.66 173.913 100.747 173.891 100.79C173.826 101.072 173.761 101.354 173.696 101.637C173.674 101.572 173.631 101.506 173.587 101.463C173.696 101.203 173.804 100.92 173.913 100.66ZM148.798 104.307C149.015 104.849 149.232 105.392 149.427 105.935C149.189 105.5 148.95 105.066 148.689 104.654C148.733 104.545 148.754 104.415 148.776 104.307H148.798ZM144.63 21.0606C144.174 21.104 143.74 21.1691 143.284 21.2125C142.894 20.6481 142.394 20.1489 141.808 19.7581C142.785 20.1706 143.718 20.6047 144.652 21.0606H144.63ZM146.844 70.0965C145.281 70.0965 143.697 70.1833 142.047 70.2919C141.982 70.0314 141.917 69.7492 141.852 69.4887C143.501 69.5755 145.173 69.7926 146.823 70.0965H146.844ZM138.248 18.4774C138.769 18.6511 139.312 18.803 139.811 18.9984C139.247 18.8899 138.639 18.8682 137.988 18.955C137.988 18.7813 137.988 18.586 137.944 18.4123C138.053 18.4123 138.14 18.4557 138.248 18.4774ZM136.924 50.6688C136.056 51.2549 135.188 51.841 134.319 52.4705C133.95 51.9712 133.581 51.472 133.191 50.9944C134.45 50.8207 135.709 50.7122 136.924 50.6688ZM124.964 217.964C123.292 218.051 121.621 218.073 119.971 218.094C122.641 217.855 125.311 217.552 128.024 217.139C135.231 216.054 142.633 214.274 150.057 211.864C142.611 215.294 134.384 217.508 124.964 217.964ZM165.013 192.328C170.505 189.723 175.801 186.728 180.816 183.341C181.836 182.864 182.834 182.365 183.833 181.865C183.833 181.952 183.833 182.017 183.833 182.104C177.777 186.142 171.373 189.745 164.752 192.914C164.839 192.719 164.926 192.523 165.013 192.328ZM181.51 204.571C186.329 200.034 190.801 195.172 195.142 190.179C197.291 188.551 199.332 186.858 201.285 185.056C205.106 183.754 208.731 182.126 212.074 180.151C203.347 189.702 192.863 198.059 181.488 204.571H181.51ZM213.398 87.4837C213.05 83.3811 212.377 79.3653 211.357 75.5015C212.855 79.2785 214.027 83.2075 214.874 87.2449C214.374 87.2667 213.875 87.3535 213.376 87.5054L213.398 87.4837Z" fill="#F6B89E"/>
    <path d="M134.645 26.2051C140.115 22.7103 144.153 15.4819 137.489 14.9175C126.722 14.0275 125.094 25.9229 125.072 25.9446C125.072 25.9446 123.444 14.0058 112.656 14.8958C105.97 15.4601 110.051 22.732 115.565 26.2268C84.4368 27.9416 36.3126 41.4867 33.3171 102.635C30.1478 167.647 46.8622 224.541 39.8943 234.895C47.4917 237.63 58.9095 229.686 60.798 222.24C58.9095 233.159 71.4344 248.614 125.398 242.732C179.361 248.614 191.886 233.181 189.998 222.24C191.886 229.664 203.304 237.63 210.901 234.895C203.933 224.541 218.759 167.647 215.438 102.635C212.291 41.0092 165.664 27.7897 134.645 26.1834V26.2051Z" fill="#030726"/>
    <path d="M62.9687 168.429C62.9687 168.429 65.8558 207.827 60.798 222.262C60.798 222.262 59.9732 227.059 62.057 230.076C62.057 230.076 70.3708 207.479 65.7472 171.381C65.248 155.253 62.9904 168.429 62.9904 168.429H62.9687Z" fill="#C1362F"/>
    <path d="M80.7684 180.65C80.7684 180.65 83.612 219.266 80.7684 228.774H83.9376C83.9376 228.774 84.2632 190.07 83.9376 184.231C83.612 178.392 80.7684 180.671 80.7684 180.671V180.65Z" fill="#C1362F"/>
    <path d="M90.9055 186.033V222.262C90.9055 226.864 92.7072 222.262 92.7072 222.262V186.706L90.9055 186.033Z" fill="#C1362F"/>
    <path d="M167.922 180.65C167.922 180.65 168.334 225.084 170.765 234.895C170.765 234.895 164.818 225.127 165.056 180.585C166.315 176.96 167.9 180.628 167.9 180.628L167.922 180.65Z" fill="#C1362F"/>
    <path d="M185.352 165.867C185.352 165.867 181.38 208.435 190.171 224.302C190.171 224.302 189.759 227.775 189.346 228.774C189.346 228.774 180.642 213.666 182.682 170.686C183.138 167.951 185.352 165.889 185.352 165.889V165.867Z" fill="#C1362F"/>
    <path d="M193.796 78.8226C223.47 122.823 195.468 144.92 195.468 144.92L193.796 78.8226Z" fill="#C1362F"/>
    <path d="M54.1122 148.35C54.1122 148.35 25.6761 125.666 50.6825 81.1887C50.0096 126.556 54.1122 148.35 54.1122 148.35Z" fill="#C1362F"/>
    <path d="M221.147 154.623C219.063 140.731 203.564 142.815 195.337 144.964C199.071 127.663 196.423 112.164 196.423 112.164C196.423 41.1827 51.9199 40.5532 51.9199 112.164C51.9199 112.164 49.2716 127.663 53.0052 144.964C44.7783 142.836 29.2796 140.752 27.1957 154.623C24.5041 172.596 45.1473 178.24 59.8646 163.566C68.2218 178.436 84.0895 190.874 113.719 191.373V211.647C113.719 211.647 114.566 215.468 119.515 216.792C119.515 217.052 121.339 216.162 121.339 216.401C122.337 216.401 123.292 216.336 124.182 216.206C125.072 216.314 126.027 216.401 127.026 216.401C127.026 216.184 128.046 216.748 128.046 216.488C132.974 215.142 134.623 211.647 134.623 211.647V191.373C164.253 190.874 180.121 178.436 188.478 163.566C203.195 178.24 223.839 172.596 221.147 154.623Z" fill="#FFA767"/>
    <path d="M89.6248 123.344C87.0851 123.344 84.8058 124.407 83.1344 126.122C80.6815 125.775 78.945 124.082 77.9464 121.759C77.534 120.804 76.1448 120.609 75.3416 121.086C74.3648 121.651 74.2563 122.736 74.6687 123.691C75.8843 126.556 78.2069 128.64 81.0505 129.53C80.6815 130.572 80.4427 131.679 80.4427 132.873C80.4427 138.126 84.567 142.381 89.6248 142.381C94.6825 142.381 98.8068 138.126 98.8068 132.873C98.8068 127.62 94.6825 123.365 89.6248 123.365V123.344Z" fill="#020616"/>
    <path d="M158.74 123.344C161.258 123.344 163.559 124.407 165.208 126.122C167.661 125.775 169.419 124.082 170.396 121.759C170.809 120.804 172.198 120.609 173.001 121.086C173.978 121.651 174.086 122.736 173.674 123.691C172.458 126.556 170.136 128.64 167.292 129.53C167.683 130.572 167.9 131.679 167.9 132.873C167.9 138.126 163.776 142.381 158.718 142.381C153.66 142.381 149.536 138.126 149.536 132.873C149.536 127.62 153.638 123.365 158.718 123.365L158.74 123.344Z" fill="#020616"/>
    <path d="M121.621 137.279C121.621 139.645 121.577 142.098 122.011 144.443C122.446 146.852 126.114 145.832 125.68 143.422C125.354 141.664 125.419 139.255 125.419 137.279C125.419 134.826 121.621 134.826 121.621 137.279Z" fill="#3F0505"/>
    <path d="M100.63 162.177C102.345 170.86 116.954 170.447 123.531 170.621C130.477 170.795 145.52 170.686 147.235 161.7C147.691 159.312 144.022 158.292 143.567 160.679C142.677 165.346 133.039 169.145 123.531 169.188C114.306 169.232 105.189 165.672 104.299 161.157C103.821 158.747 100.153 159.768 100.63 162.177Z" fill="#020616"/>
    <path opacity="0.2" d="M85.3268 186.033C85.4353 185.838 94.0096 171.316 82.3529 157.38C70.6312 143.357 54.1122 152.301 54.1122 152.301C55.1542 157.185 56.6302 161.374 58.3668 164.956C58.8661 164.5 59.3653 164.044 59.8646 163.545C65.0091 172.705 73.019 180.932 85.3051 186.011L85.3268 186.033Z" fill="#9C1C26"/>
    <path d="M52.4625 142.076C52.6362 143.032 52.8098 143.987 53.0269 144.942C52.4191 144.79 51.7679 144.638 51.095 144.486C52.1152 148.545 53.3308 152.409 54.8069 156.143C54.0471 155.6 53.1354 155.036 52.0718 154.558C51.4857 154.319 50.8562 154.08 50.205 153.885C49.5321 153.733 48.8592 153.538 48.1211 153.516C47.4048 153.408 46.6885 153.451 45.9721 153.494C45.2341 153.494 44.5612 153.711 43.8883 153.842C43.2154 153.994 42.6076 154.276 42.0215 154.471C41.4137 154.667 40.9361 155.014 40.4586 155.253C39.4601 155.752 38.8089 156.316 38.3096 156.685C37.8103 157.054 37.5282 157.271 37.5282 157.271C37.3762 157.38 37.2243 157.532 37.094 157.662C36.0087 158.878 36.1172 160.766 37.3328 161.851C38.5484 162.937 40.4152 162.828 41.5222 161.613L41.6959 161.417C41.6959 161.417 41.8695 161.222 42.1517 160.918C42.4339 160.614 42.8246 160.072 43.4107 159.637C43.6929 159.42 43.9751 159.073 44.3224 158.899C44.6697 158.704 45.017 158.4 45.4295 158.226C45.8419 158.074 46.2326 157.792 46.7102 157.727C47.166 157.597 47.6219 157.467 48.1211 157.445C50.0748 157.163 52.2454 157.792 53.7432 158.487C55.2844 159.203 56.1527 159.876 56.1527 159.876C56.2612 159.963 56.3698 160.05 56.5 160.072C57.1946 161.634 57.9761 163.176 58.7792 164.695C59.17 164.326 59.5607 163.979 59.9514 163.588C60.8848 165.238 61.9267 166.866 63.0555 168.45C58.0846 160.137 54.72 151.671 52.5493 142.12L52.4625 142.076Z" fill="#3F0505"/>
    <path opacity="0.2" d="M162.582 186.684C162.473 186.489 153.899 171.967 165.556 158.031C177.277 144.009 193.796 152.952 193.796 152.952C192.754 157.836 191.278 162.025 189.542 165.607C189.042 165.151 188.543 164.695 188.044 164.196C182.899 173.356 174.89 181.583 162.603 186.663L162.582 186.684Z" fill="#9C1C26"/>
    <path d="M211.314 161.83C212.529 160.745 212.638 158.878 211.553 157.641C211.422 157.489 211.27 157.358 211.118 157.25C211.118 157.25 210.836 157.033 210.337 156.664C209.838 156.295 209.165 155.73 208.188 155.231C207.689 154.992 207.233 154.645 206.625 154.45C206.017 154.254 205.431 153.95 204.758 153.82C204.064 153.712 203.391 153.473 202.674 153.473C201.958 153.429 201.242 153.386 200.525 153.495C199.809 153.538 199.114 153.712 198.463 153.864C197.812 154.037 197.183 154.276 196.596 154.536C195.533 155.014 194.621 155.578 193.861 156.121C195.337 152.366 196.575 148.48 197.573 144.421C196.835 144.573 196.141 144.747 195.489 144.899C193.557 152.366 190.822 159.182 187.111 165.867C187.588 165.108 188.066 164.326 188.5 163.545C188.934 163.979 189.39 164.413 189.846 164.804C190.67 163.219 191.474 161.635 192.19 160.007C192.32 159.963 192.429 159.898 192.537 159.811C192.537 159.811 193.406 159.138 194.947 158.422C196.445 157.727 198.615 157.12 200.569 157.38C201.068 157.402 201.524 157.554 201.98 157.662C202.436 157.749 202.848 158.031 203.26 158.162C203.673 158.335 204.02 158.639 204.368 158.834C204.715 159.008 204.997 159.355 205.279 159.572C205.844 160.007 206.234 160.549 206.538 160.853C206.82 161.179 206.994 161.352 206.994 161.352L207.168 161.548C208.253 162.763 210.12 162.872 211.357 161.787L211.314 161.83Z" fill="#3F0505"/>
    <path d="M134.688 211.647C130.89 215.88 125.55 216.184 124.421 216.206C123.205 216.206 117.54 215.858 113.741 211.647C113.741 211.647 63.1424 222.544 65.8558 248.462H182.574C185.287 222.544 134.688 211.647 134.688 211.647Z" fill="#F9D350"/>
    <path d="M152.77 48.6066C146.714 46.0452 137.641 44.3521 124.182 44.3521C57.9327 44.3521 41.1532 88.721 43.0635 117.548C44.9737 146.375 63.9672 145.767 63.9672 145.767C63.9672 145.767 60.7329 126.513 70.9351 110.905C75.4068 104.09 79.0318 98.6411 81.832 94.5385C79.0318 104.459 79.2706 117.309 98.8068 117.873C98.8068 117.873 98.3727 112.099 99.7185 107.063C105.645 114.444 111.505 118.937 111.505 118.937L123.531 106.477L124.182 118.937C141.613 116.289 153.356 108.366 154.984 94.2997C157.242 99.3574 157.437 110.71 153.356 115.03C157.372 115.942 168.855 115.03 171.091 104.893C176.626 122.323 188.522 123.734 182.509 147.351C182.509 147.351 199.722 150.173 203.412 118.937C206.408 93.6919 191.539 60.4803 152.792 48.6283L152.77 48.6066Z" fill="#030726"/>
    <path d="M98.8068 106.412C98.8068 108.496 96.0717 110.189 92.7071 110.189C89.3426 110.189 86.6075 108.496 86.6075 106.412C86.6075 104.328 89.3426 102.635 92.7071 102.635C96.0717 102.635 98.8068 104.328 98.8068 106.412Z" fill="#C1362F"/>
    <path d="M159.456 106.412C159.456 108.496 156.721 110.189 153.378 110.189C150.035 110.189 147.278 108.496 147.278 106.412C147.278 104.328 150.013 102.635 153.378 102.635C156.743 102.635 159.456 104.328 159.456 106.412Z" fill="#C1362F"/>
    <path opacity="0.2" d="M113.719 191.373H134.645V196.713L113.719 197.364V191.373Z" fill="#9C1C26"/>
    <path d="M113.719 206.959C113.719 206.959 108.944 207.436 108.944 212.863C108.944 212.863 110.029 222.262 123.922 222.262C137.814 222.262 138.813 212.689 138.813 212.689C138.813 212.689 139.073 207.957 134.623 206.959C134.623 206.959 133.408 214.382 123.878 214.599C114.349 214.816 113.719 206.959 113.719 206.959Z" fill="#F9F6ED"/>
    <path d="M142.242 216.857C142.242 216.857 137.228 226.864 125.702 225.909C125.702 225.909 141.765 230.597 142.242 216.857Z" fill="#C1362F"/>
    <path d="M105.644 220.764C106.165 219.353 108.228 227.819 125.723 228.752C125.723 228.752 102.106 230.597 105.644 220.764Z" fill="#C1362F"/>
</svg>
